<?xml version="1.0" encoding="utf-8"?>
<!-- Generator: Adobe Illustrator 16.0.2, SVG Export Plug-In . SVG Version: 6.00 Build 0)  -->
<!DOCTYPE svg PUBLIC "-//W3C//DTD SVG 1.1//EN" "http://www.w3.org/Graphics/SVG/1.1/DTD/svg11.dtd">
<svg version="1.1" id="Layer_1" xmlns="http://www.w3.org/2000/svg" xmlns:xlink="http://www.w3.org/1999/xlink" x="0px" y="0px"
	 width="566.93px" height="566.93px" viewBox="0 0 566.93 566.93" enable-background="new 0 0 566.93 566.93" xml:space="preserve">
<g>
	<g>
		<circle fill="#BC4D56" stroke="#F4E8E1" stroke-width="4" stroke-miterlimit="10" cx="282.379" cy="283.465" r="206.352"/>
		<path fill="#0B3536" stroke="#0B3536" stroke-width="7" stroke-miterlimit="10" d="M300.924,435.314c0,0-19.013,10.646-36.504,0
			l-113.696-66.568c0,0-9.126-4.92-9.507-20.13V217.807c0,0,1.521-14.45,16.731-25.097l110.654-64.644c0,0,13.309-8.746,29.28,0
			l111.034,64.263c0,0,13.689,11.027,15.21,28.139v128.527c0,0,0.057,14.069-11.407,22.055L300.924,435.314z"/>
		<g>
			<g>
				<g>
					<g enable-background="new    ">
						<defs>
							<polygon id="SVGID_1_" enable-background="new    " points="285.469,444.245 285.018,284.339 424.163,203.998
								424.614,363.904 							"/>
						</defs>
						<clipPath id="SVGID_2_">
							<use xlink:href="#SVGID_1_"  overflow="visible"/>
						</clipPath>
						<g clip-path="url(#SVGID_2_)">
							<g>
								<g>
									<g>
										<path fill="#46454B" d="M348.197,296.972c-4.322,2.496-7.584,4.827-9.791,6.653l0.165,58.687
											c2.115-0.78,5.187-2.443,8.449-4.327c17.857-10.311,27.522-27.378,27.466-47.458
											C374.533,292.929,365.857,286.775,348.197,296.972 M345.407,366.653c-5.95,3.437-10.943,5.989-15.165,7.875l-0.207-73.147
											c5.086-3.818,11.13-7.97,17.751-11.792c12.004-6.931,20.556-8.665,26.235-5.867c5.782,2.739,9.165,9.405,9.199,21.431
											c0.034,12.136-3.201,23.946-9.233,34.278C367.96,349.877,357.985,359.392,345.407,366.653 M411.158,211.507
											l-113.142,65.327c-7.183,4.147-12.98,14.196-12.957,22.45l0.367,130.016c0.023,8.254,5.858,11.587,13.041,7.439
											l113.142-65.326c7.183-4.147,12.986-14.2,12.963-22.454l-0.367-130.016C424.182,210.689,418.341,207.36,411.158,211.507"
											/>
										<path fill="#F4E8E1" d="M347.021,357.984c-3.263,1.884-6.334,3.547-8.449,4.327l-0.165-58.687
											c2.207-1.826,5.469-4.157,9.791-6.653c17.66-10.196,26.336-4.043,26.289,13.555
											C374.543,330.606,364.878,347.674,347.021,357.984 M347.786,289.589c-6.621,3.822-12.665,7.974-17.751,11.792
											l0.207,73.147c4.222-1.886,9.215-4.438,15.165-7.875c12.578-7.262,22.553-16.776,28.58-27.223
											c6.032-10.332,9.268-22.143,9.233-34.278c-0.034-12.025-3.417-18.691-9.199-21.431
											C368.342,280.924,359.79,282.658,347.786,289.589"/>
									</g>
								</g>
							</g>
						</g>
					</g>
				</g>
			</g>
			<g>
				<g>
					<g enable-background="new    ">
						<defs>
							<polygon id="SVGID_3_" enable-background="new    " points="140.657,363.903 141.108,203.998 280.255,284.34
								279.804,444.245 							"/>
						</defs>
						<clipPath id="SVGID_4_">
							<use xlink:href="#SVGID_3_"  overflow="visible"/>
						</clipPath>
						<g clip-path="url(#SVGID_4_)">
							<g>
								<g>
									<g>
										<path fill="#40626D" d="M204.012,289.43c-4.316-2.492-7.58-3.929-9.79-4.653l-0.166,58.687
											c2.112,1.661,5.183,3.544,8.445,5.428c17.858,10.311,27.582,4.438,27.639-15.642
											C230.291,315.766,221.678,299.63,204.012,289.43 M200.845,355.672c-5.95-3.436-10.942-6.648-15.161-9.636l0.207-73.147
											c5.084,2.054,11.139,4.888,17.76,8.711c12.003,6.931,20.536,15.063,26.182,24.399c5.749,9.396,9.083,19.941,9.049,31.966
											c-0.034,12.136-3.325,20.179-9.397,23.521C223.418,364.951,213.423,362.935,200.845,355.672 M267.25,276.83
											l-113.142-65.327c-7.176-4.144-13.018-0.814-13.041,7.439l-0.367,130.016c-0.023,8.254,5.781,18.307,12.957,22.45
											l113.142,65.327c7.183,4.146,13.024,0.817,13.047-7.437l0.367-130.016C280.236,291.03,274.432,280.978,267.25,276.83"/>
										<path fill="#F4E8E1" d="M202.501,348.891c-3.263-1.884-6.333-3.767-8.445-5.428l0.166-58.687
											c2.21,0.725,5.474,2.161,9.79,4.653c17.666,10.2,26.279,26.336,26.128,43.819
											C230.083,353.329,220.359,359.201,202.501,348.891 M203.65,281.6c-6.621-3.823-12.676-6.657-17.76-8.711l-0.207,73.147
											c4.218,2.987,9.21,6.2,15.161,9.636c12.578,7.263,22.574,9.279,28.64,5.814c6.072-3.343,9.363-11.386,9.397-23.521
											c0.034-12.024-3.3-22.569-9.049-31.966C224.187,296.662,215.653,288.53,203.65,281.6"/>
									</g>
								</g>
							</g>
						</g>
					</g>
				</g>
			</g>
			<g>
				<g>
					<g enable-background="new    ">
						<defs>
							<polygon id="SVGID_5_" enable-background="new    " points="144.544,200.196 282.788,119.854 421.934,200.196
								283.69,280.537 							"/>
						</defs>
						<clipPath id="SVGID_6_">
							<use xlink:href="#SVGID_5_"  overflow="visible"/>
						</clipPath>
						<g clip-path="url(#SVGID_6_)">
							<g>
								<g>
									<g>
										<path fill="#BC4D56" d="M263.833,200.889c-4.864,1.806-11.744,5.176-11.713,10.742c0.017,3.019,1.96,5.684,5.27,7.595
											c3.309,1.911,7.982,3.066,13.462,3.066c7.853,0,14.467-2.039,18.791-4.782
											C284.201,214.061,274.021,207.631,263.833,200.889 M280.366,179.223c-1.693-0.978-4.06-1.615-7.188-1.613
											c-7.579-0.004-11.485,3.605-11.463,7.683c0.021,3.76,3.016,6.665,6.958,9.485c9.185-3.06,15.119-5.88,15.094-10.348
											C283.757,182.566,282.701,180.571,280.366,179.223 M247.992,222.923c-4.685-2.705-7.211-6.365-7.232-10.274
											c-0.041-7.21,7.377-12.15,17.776-15.442l-0.001-0.236c-4.76-3.447-7.62-7.288-7.647-11.052
											c-0.036-6.429,7.919-13.013,23.072-13.017c5.935,0.002,11.173,1.197,14.832,3.309c3.353,1.936,5.377,4.642,5.393,7.905
											c0.037,5.563-5.487,9.957-19.948,14.107l0.001,0.236c7.743,5.176,16.437,10.975,22.281,14.739
											c4.172-3.683,6.988-8.781,8.707-15.447l10.825,0.004c-2.385,8.309-6.273,14.897-13.02,19.52
											c4.892,2.979,9.644,5.958,15.078,9.331l-14.07-0.004c-2.579-1.489-5.032-2.979-8.563-5.172
											c-7.816,4.232-16.607,6.035-26.624,6.035C259.876,227.466,252.798,225.697,247.992,222.923 M408.935,192.69
											l-113.142-65.327c-7.183-4.147-18.784-4.151-25.92-0.004l-112.408,65.327c-7.136,4.147-7.098,10.871,0.085,15.019
											l113.142,65.327c7.183,4.147,18.783,4.143,25.919-0.004l112.408-65.327C416.154,203.554,416.117,196.838,408.935,192.69"
											/>
										<path fill="#F4E8E1" d="M257.39,219.226c-3.31-1.911-5.253-4.576-5.27-7.595c-0.031-5.566,6.849-8.936,11.713-10.742
											c10.188,6.742,20.369,13.171,25.81,16.622c-4.324,2.743-10.938,4.781-18.791,4.782
											C265.372,222.292,260.698,221.137,257.39,219.226 M268.673,194.777c-3.942-2.82-6.937-5.725-6.958-9.485
											c-0.022-4.077,3.884-7.687,11.463-7.683c3.128-0.001,5.495,0.636,7.188,1.613c2.334,1.348,3.391,3.344,3.401,5.207
											C283.792,188.897,277.858,191.717,268.673,194.777 M288.791,176.211c-3.658-2.112-8.897-3.307-14.832-3.309
											c-15.152,0.003-23.108,6.587-23.072,13.017c0.027,3.764,2.887,7.605,7.647,11.052l0.001,0.236
											c-10.399,3.292-17.817,8.232-17.776,15.442c0.021,3.909,2.547,7.569,7.232,10.274c4.806,2.774,11.884,4.543,20.858,4.542
											c10.017,0,18.808-1.803,26.624-6.035c3.531,2.194,5.984,3.684,8.563,5.172l14.07,0.004
											c-5.435-3.373-10.187-6.352-15.078-9.331c6.746-4.623,10.635-11.21,13.02-19.52l-10.825-0.004
											c-1.719,6.666-4.535,11.764-8.707,15.447c-5.845-3.764-14.539-9.563-22.281-14.739l-0.001-0.236
											c14.461-4.151,19.985-8.545,19.948-14.107C294.168,180.853,292.144,178.147,288.791,176.211"/>
									</g>
								</g>
							</g>
						</g>
					</g>
				</g>
			</g>
		</g>
	</g>
</g>
</svg>
